<svg width="368" height="62" viewBox="0 0 368 62" fill="none" xmlns="http://www.w3.org/2000/svg">
<rect x="0.438477" y="0.860352" width="367.438" height="60.8604" rx="15" fill="#24292F"/>
<path d="M107.141 39.291V24.7456H110.216V36.7555H116.452V39.291H107.141ZM123.361 39.5041C122.258 39.5041 121.304 39.2697 120.499 38.801C119.699 38.3275 119.081 37.6693 118.645 36.8265C118.209 35.979 117.992 34.9965 117.992 33.8791C117.992 32.7522 118.209 31.7673 118.645 30.9245C119.081 30.077 119.699 29.4189 120.499 28.9501C121.304 28.4766 122.258 28.2399 123.361 28.2399C124.464 28.2399 125.416 28.4766 126.216 28.9501C127.021 29.4189 127.641 30.077 128.077 30.9245C128.512 31.7673 128.73 32.7522 128.73 33.8791C128.73 34.9965 128.512 35.979 128.077 36.8265C127.641 37.6693 127.021 38.3275 126.216 38.801C125.416 39.2697 124.464 39.5041 123.361 39.5041ZM123.375 37.1603C123.877 37.1603 124.296 37.0183 124.632 36.7342C124.968 36.4454 125.222 36.0524 125.392 35.5552C125.567 35.0581 125.655 34.4922 125.655 33.8578C125.655 33.2233 125.567 32.6575 125.392 32.1603C125.222 31.6632 124.968 31.2702 124.632 30.9814C124.296 30.6925 123.877 30.5481 123.375 30.5481C122.869 30.5481 122.442 30.6925 122.097 30.9814C121.756 31.2702 121.498 31.6632 121.323 32.1603C121.152 32.6575 121.067 33.2233 121.067 33.8578C121.067 34.4922 121.152 35.0581 121.323 35.5552C121.498 36.0524 121.756 36.4454 122.097 36.7342C122.442 37.0183 122.869 37.1603 123.375 37.1603ZM135.612 43.6092C134.632 43.6092 133.792 43.4743 133.091 43.2044C132.395 42.9392 131.841 42.577 131.429 42.1177C131.017 41.6584 130.75 41.1423 130.627 40.5694L133.425 40.193C133.51 40.4108 133.645 40.6144 133.83 40.8038C134.014 40.9932 134.258 41.1447 134.561 41.2583C134.869 41.3767 135.243 41.4359 135.683 41.4359C136.342 41.4359 136.884 41.2749 137.31 40.9529C137.741 40.6357 137.956 40.103 137.956 39.3549V37.3592H137.828C137.696 37.6622 137.497 37.9487 137.232 38.2186C136.967 38.4885 136.626 38.7086 136.209 38.8791C135.792 39.0495 135.295 39.1348 134.718 39.1348C133.898 39.1348 133.153 38.9454 132.48 38.5666C131.813 38.1831 131.28 37.5983 130.882 36.8123C130.489 36.0216 130.293 35.0225 130.293 33.8152C130.293 32.5794 130.494 31.5472 130.896 30.7186C131.299 29.89 131.834 29.2697 132.502 28.8578C133.174 28.4458 133.91 28.2399 134.71 28.2399C135.321 28.2399 135.833 28.344 136.244 28.5524C136.656 28.756 136.988 29.0117 137.239 29.3194C137.494 29.6225 137.691 29.9208 137.828 30.2143H137.942V28.3819H140.946V39.3975C140.946 40.3256 140.719 41.1021 140.264 41.7271C139.81 42.3521 139.18 42.8208 138.375 43.1333C137.575 43.4506 136.654 43.6092 135.612 43.6092ZM135.676 36.862C136.164 36.862 136.576 36.7413 136.912 36.4998C137.253 36.2536 137.513 35.9032 137.693 35.4487C137.878 34.9894 137.97 34.4402 137.97 33.801C137.97 33.1618 137.88 32.6078 137.7 32.139C137.521 31.6655 137.26 31.2986 136.919 31.0382C136.578 30.7778 136.164 30.6475 135.676 30.6475C135.179 30.6475 134.76 30.7825 134.419 31.0524C134.078 31.3175 133.82 31.6868 133.645 32.1603C133.47 32.6338 133.382 33.1807 133.382 33.801C133.382 34.4307 133.47 34.9752 133.645 35.4345C133.825 35.889 134.083 36.2418 134.419 36.4927C134.76 36.7389 135.179 36.862 135.676 36.862ZM143.354 39.291V28.3819H146.379V39.291H143.354ZM144.874 26.9757C144.424 26.9757 144.038 26.8265 143.716 26.5282C143.399 26.2252 143.24 25.863 143.24 25.4416C143.24 25.0249 143.399 24.6674 143.716 24.3691C144.038 24.0661 144.424 23.9146 144.874 23.9146C145.324 23.9146 145.707 24.0661 146.024 24.3691C146.346 24.6674 146.507 25.0249 146.507 25.4416C146.507 25.863 146.346 26.2252 146.024 26.5282C145.707 26.8265 145.324 26.9757 144.874 26.9757ZM151.829 32.9842V39.291H148.803V28.3819H151.687V30.3066H151.814C152.056 29.6722 152.461 29.1703 153.029 28.801C153.597 28.4269 154.286 28.2399 155.096 28.2399C155.853 28.2399 156.514 28.4056 157.077 28.737C157.641 29.0685 158.079 29.542 158.391 30.1575C158.704 30.7683 158.86 31.4975 158.86 32.345V39.291H155.834V32.8848C155.839 32.2172 155.669 31.6963 155.323 31.3223C154.977 30.9435 154.501 30.7541 153.895 30.7541C153.488 30.7541 153.128 30.8417 152.816 31.0169C152.508 31.1921 152.267 31.4477 152.091 31.7839C151.921 32.1154 151.833 32.5154 151.829 32.9842ZM165.873 39.291V28.3819H168.899V39.291H165.873ZM167.393 26.9757C166.943 26.9757 166.558 26.8265 166.236 26.5282C165.918 26.2252 165.76 25.863 165.76 25.4416C165.76 25.0249 165.918 24.6674 166.236 24.3691C166.558 24.0661 166.943 23.9146 167.393 23.9146C167.843 23.9146 168.227 24.0661 168.544 24.3691C168.866 24.6674 169.027 25.0249 169.027 25.4416C169.027 25.863 168.866 26.2252 168.544 26.5282C168.227 26.8265 167.843 26.9757 167.393 26.9757ZM174.348 32.9842V39.291H171.323V28.3819H174.206V30.3066H174.334C174.575 29.6722 174.98 29.1703 175.548 28.801C176.117 28.4269 176.806 28.2399 177.615 28.2399C178.373 28.2399 179.033 28.4056 179.597 28.737C180.16 29.0685 180.598 29.542 180.911 30.1575C181.223 30.7683 181.379 31.4975 181.379 32.345V39.291H178.354V32.8848C178.359 32.2172 178.188 31.6963 177.843 31.3223C177.497 30.9435 177.021 30.7541 176.415 30.7541C176.008 30.7541 175.648 30.8417 175.335 31.0169C175.028 31.1921 174.786 31.4477 174.611 31.7839C174.441 32.1154 174.353 32.5154 174.348 32.9842ZM190.545 39.291L187.576 28.3819H190.637L192.328 35.7115H192.427L194.188 28.3819H197.193L198.982 35.6689H199.075L200.737 28.3819H203.791L200.829 39.291H197.626L195.751 32.4302H195.616L193.741 39.291H190.545ZM205.405 39.291V28.3819H208.43V39.291H205.405ZM206.925 26.9757C206.475 26.9757 206.089 26.8265 205.767 26.5282C205.45 26.2252 205.291 25.863 205.291 25.4416C205.291 25.0249 205.45 24.6674 205.767 24.3691C206.089 24.0661 206.475 23.9146 206.925 23.9146C207.374 23.9146 207.758 24.0661 208.075 24.3691C208.397 24.6674 208.558 25.0249 208.558 25.4416C208.558 25.863 208.397 26.2252 208.075 26.5282C207.758 26.8265 207.374 26.9757 206.925 26.9757ZM216.656 28.3819V30.6547H210.087V28.3819H216.656ZM211.578 25.7683H214.604V35.9387C214.604 36.2181 214.646 36.4359 214.732 36.5922C214.817 36.7437 214.935 36.8502 215.087 36.9118C215.243 36.9733 215.423 37.0041 215.627 37.0041C215.769 37.0041 215.911 36.9922 216.053 36.9686C216.195 36.9402 216.304 36.9189 216.379 36.9047L216.855 39.1561C216.704 39.2034 216.491 39.2579 216.216 39.3194C215.941 39.3857 215.608 39.426 215.215 39.4402C214.485 39.4686 213.846 39.3715 213.297 39.149C212.753 38.9264 212.329 38.5808 212.026 38.112C211.723 37.6433 211.574 37.0514 211.578 36.3365V25.7683ZM221.887 32.9842V39.291H218.862V24.7456H221.802V30.3066H221.93C222.176 29.6627 222.574 29.1584 223.123 28.7939C223.672 28.4245 224.361 28.2399 225.19 28.2399C225.947 28.2399 226.608 28.4056 227.171 28.737C227.74 29.0637 228.18 29.5349 228.492 30.1504C228.81 30.7612 228.966 31.4927 228.961 32.345V39.291H225.936V32.8848C225.94 32.2124 225.77 31.6892 225.424 31.3152C225.083 30.9411 224.605 30.7541 223.99 30.7541C223.578 30.7541 223.213 30.8417 222.896 31.0169C222.583 31.1921 222.337 31.4477 222.157 31.7839C221.982 32.1154 221.892 32.5154 221.887 32.9842ZM245.673 29.4473C245.573 29.1016 245.434 28.7962 245.254 28.5311C245.074 28.2612 244.854 28.0339 244.593 27.8493C244.338 27.6599 244.044 27.5154 243.713 27.416C243.386 27.3166 243.024 27.2669 242.626 27.2669C241.883 27.2669 241.229 27.4515 240.666 27.8208C240.107 28.1902 239.671 28.7276 239.359 29.4331C239.046 30.1338 238.89 30.9908 238.89 32.0041C238.89 33.0173 239.044 33.8791 239.352 34.5893C239.66 35.2995 240.095 35.8417 240.659 36.2157C241.222 36.585 241.887 36.7697 242.654 36.7697C243.35 36.7697 243.945 36.6466 244.437 36.4004C244.934 36.1494 245.313 35.7967 245.573 35.3422C245.838 34.8876 245.971 34.3502 245.971 33.7299L246.596 33.8223H242.846V31.5069H248.933V33.3393C248.933 34.6177 248.663 35.7162 248.123 36.6348C247.583 37.5486 246.84 38.2541 245.893 38.7512C244.946 39.2437 243.862 39.4899 242.64 39.4899C241.276 39.4899 240.079 39.1892 239.046 38.5879C238.014 37.9818 237.209 37.1225 236.632 36.0098C236.059 34.8923 235.772 33.5666 235.772 32.0325C235.772 30.8535 235.943 29.8024 236.284 28.8791C236.629 27.9511 237.112 27.1651 237.732 26.5211C238.353 25.8772 239.075 25.3871 239.899 25.051C240.722 24.7148 241.615 24.5467 242.576 24.5467C243.4 24.5467 244.167 24.6674 244.877 24.9089C245.588 25.1457 246.217 25.4818 246.767 25.9174C247.32 26.353 247.773 26.8715 248.123 27.4728C248.473 28.0694 248.698 28.7276 248.798 29.4473H245.673ZM251.869 39.291V28.3819H254.895V39.291H251.869ZM253.389 26.9757C252.94 26.9757 252.554 26.8265 252.232 26.5282C251.914 26.2252 251.756 25.863 251.756 25.4416C251.756 25.0249 251.914 24.6674 252.232 24.3691C252.554 24.0661 252.94 23.9146 253.389 23.9146C253.839 23.9146 254.223 24.0661 254.54 24.3691C254.862 24.6674 255.023 25.0249 255.023 25.4416C255.023 25.863 254.862 26.2252 254.54 26.5282C254.223 26.8265 253.839 26.9757 253.389 26.9757ZM263.121 28.3819V30.6547H256.552V28.3819H263.121ZM258.043 25.7683H261.069V35.9387C261.069 36.2181 261.111 36.4359 261.197 36.5922C261.282 36.7437 261.4 36.8502 261.552 36.9118C261.708 36.9733 261.888 37.0041 262.091 37.0041C262.233 37.0041 262.376 36.9922 262.518 36.9686C262.66 36.9402 262.769 36.9189 262.844 36.9047L263.32 39.1561C263.169 39.2034 262.956 39.2579 262.681 39.3194C262.406 39.3857 262.073 39.426 261.68 39.4402C260.95 39.4686 260.311 39.3715 259.762 39.149C259.217 38.9264 258.794 38.5808 258.491 38.112C258.188 37.6433 258.038 37.0514 258.043 36.3365V25.7683ZM268.352 32.9842V39.291H265.327V24.7456H268.267V30.3066H268.395C268.641 29.6627 269.039 29.1584 269.588 28.7939C270.137 28.4245 270.826 28.2399 271.655 28.2399C272.412 28.2399 273.073 28.4056 273.636 28.737C274.204 29.0637 274.645 29.5349 274.957 30.1504C275.274 30.7612 275.431 31.4927 275.426 32.345V39.291H272.4V32.8848C272.405 32.2124 272.235 31.6892 271.889 31.3152C271.548 30.9411 271.07 30.7541 270.454 30.7541C270.042 30.7541 269.678 30.8417 269.361 31.0169C269.048 31.1921 268.802 31.4477 268.622 31.7839C268.447 32.1154 268.357 32.5154 268.352 32.9842ZM284.803 34.6461V28.3819H287.828V39.291H284.923V37.3095H284.81C284.564 37.9487 284.154 38.4624 283.581 38.8507C283.013 39.2389 282.319 39.4331 281.5 39.4331C280.771 39.4331 280.129 39.2673 279.575 38.9359C279.021 38.6045 278.588 38.1333 278.276 37.5225C277.968 36.9118 277.812 36.1802 277.807 35.3279V28.3819H280.833V34.7882C280.837 35.4321 281.01 35.9411 281.351 36.3152C281.692 36.6892 282.149 36.8762 282.722 36.8762C283.086 36.8762 283.427 36.7934 283.744 36.6277C284.062 36.4572 284.317 36.2063 284.512 35.8748C284.71 35.5434 284.807 35.1338 284.803 34.6461ZM290.305 39.291V24.7456H293.331V30.2143H293.423C293.556 29.9208 293.747 29.6225 293.998 29.3194C294.254 29.0117 294.586 28.756 294.993 28.5524C295.405 28.344 295.916 28.2399 296.527 28.2399C297.322 28.2399 298.056 28.4482 298.729 28.8649C299.401 29.2768 299.938 29.8994 300.341 30.7328C300.743 31.5614 300.944 32.6007 300.944 33.8507C300.944 35.0675 300.748 36.095 300.355 36.9331C299.967 37.7664 299.436 38.3985 298.764 38.8294C298.096 39.2555 297.348 39.4686 296.52 39.4686C295.933 39.4686 295.433 39.3715 295.021 39.1774C294.614 38.9833 294.28 38.7394 294.02 38.4458C293.759 38.1475 293.56 37.8469 293.423 37.5439H293.288V39.291H290.305ZM293.267 33.8365C293.267 34.4851 293.357 35.051 293.537 35.5339C293.717 36.0169 293.977 36.3933 294.318 36.6632C294.659 36.9283 295.073 37.0609 295.561 37.0609C296.053 37.0609 296.47 36.926 296.811 36.6561C297.152 36.3815 297.41 36.0027 297.585 35.5197C297.765 35.032 297.855 34.4709 297.855 33.8365C297.855 33.2067 297.767 32.6528 297.592 32.1745C297.417 31.6963 297.159 31.3223 296.818 31.0524C296.477 30.7825 296.058 30.6475 295.561 30.6475C295.068 30.6475 294.652 30.7778 294.311 31.0382C293.975 31.2986 293.717 31.6679 293.537 32.1461C293.357 32.6243 293.267 33.1878 293.267 33.8365Z" fill="white"/>
<path d="M78.158 19.8604C71.6863 19.8604 66.4385 25.1073 66.4385 31.5799C66.4385 36.758 69.7965 41.1509 74.453 42.7006C75.0387 42.809 75.2538 42.4463 75.2538 42.1368C75.2538 41.8574 75.2428 40.9341 75.2379 39.9548C71.9774 40.6638 71.2894 38.5721 71.2894 38.5721C70.7563 37.2174 69.9882 36.8573 69.9882 36.8573C68.9249 36.1299 70.0684 36.1448 70.0684 36.1448C71.2452 36.2275 71.8649 37.3525 71.8649 37.3525C72.9102 39.1442 74.6065 38.6262 75.2753 38.3268C75.3804 37.5693 75.6842 37.0524 76.0193 36.7597C73.4163 36.4633 70.6799 35.4584 70.6799 30.9678C70.6799 29.6884 71.1377 28.6428 71.8874 27.8221C71.7657 27.5269 71.3646 26.335 72.0009 24.7207C72.0009 24.7207 72.9851 24.4057 75.2246 25.922C76.1594 25.6623 77.162 25.5321 78.158 25.5277C79.154 25.5321 80.1573 25.6623 81.0939 25.922C83.3308 24.4057 84.3136 24.7207 84.3136 24.7207C84.9515 26.335 84.5502 27.5269 84.4285 27.8221C85.1799 28.6428 85.6346 29.6883 85.6346 30.9678C85.6346 35.469 82.893 36.4602 80.2833 36.7503C80.7037 37.114 81.0782 37.8273 81.0782 38.9206C81.0782 40.4887 81.0646 41.7507 81.0646 42.1368C81.0646 42.4486 81.2755 42.8141 81.8697 42.699C86.5237 41.1476 89.8774 36.7562 89.8774 31.5799C89.8774 25.1073 84.6303 19.8604 78.158 19.8604Z" fill="white"/>
<path d="M70.8277 36.5546C70.8019 36.6128 70.7102 36.6302 70.6269 36.5903C70.5418 36.5521 70.494 36.4727 70.5216 36.4142C70.5469 36.3543 70.6386 36.3376 70.7235 36.3778C70.8087 36.416 70.8572 36.4961 70.8277 36.5546ZM71.4042 37.0689C71.3483 37.1208 71.239 37.0967 71.1648 37.0148C71.0882 36.9331 71.0738 36.8239 71.1305 36.7712C71.1882 36.7195 71.2942 36.7436 71.371 36.8255C71.4476 36.9081 71.4625 37.0166 71.4041 37.069M71.7997 37.727C71.7278 37.7769 71.6103 37.7302 71.5378 37.6259C71.466 37.5218 71.466 37.3968 71.5394 37.3467C71.6122 37.2966 71.7278 37.3416 71.8013 37.445C71.873 37.551 71.873 37.676 71.7996 37.7271M72.4684 38.4893C72.4042 38.5601 72.2674 38.5411 72.1672 38.4444C72.0649 38.3499 72.0363 38.2158 72.1007 38.145C72.1657 38.074 72.3033 38.094 72.4042 38.1898C72.5059 38.2841 72.537 38.4192 72.4685 38.4893M73.3328 38.7466C73.3046 38.8384 73.1728 38.8801 73.0401 38.8411C72.9075 38.801 72.8208 38.6934 72.8475 38.6007C72.8751 38.5083 73.0074 38.4648 73.1412 38.5066C73.2735 38.5465 73.3605 38.6533 73.3329 38.7466M74.3167 38.8557C74.32 38.9524 74.2074 39.0326 74.068 39.0343C73.9279 39.0374 73.8145 38.9591 73.8131 38.8641C73.8131 38.7665 73.9231 38.6871 74.0632 38.6848C74.2025 38.682 74.3167 38.7597 74.3167 38.8557ZM75.283 38.8187C75.2998 38.913 75.2029 39.0099 75.0646 39.0356C74.9285 39.0604 74.8026 39.0023 74.7852 38.9088C74.7683 38.8121 74.867 38.7153 75.0028 38.6902C75.1414 38.6661 75.2654 38.7228 75.283 38.8187Z" fill="white"/>
</svg>
